<?xml version="1.0" encoding="UTF-8" standalone="no"?>
<!-- Created with Inkscape (http://www.inkscape.org/) -->

<svg
   width="600"
   height="800"
   viewBox="0 0 158.75 211.66667"
   version="1.1"
   id="svg1"
   xml:space="preserve"
   inkscape:version="1.4 (e7c3feb100, 2024-10-09)"
   sodipodi:docname="beatnick.svg"
   xmlns:inkscape="http://www.inkscape.org/namespaces/inkscape"
   xmlns:sodipodi="http://sodipodi.sourceforge.net/DTD/sodipodi-0.dtd"
   xmlns="http://www.w3.org/2000/svg"
   xmlns:svg="http://www.w3.org/2000/svg"><sodipodi:namedview
     id="namedview1"
     pagecolor="#ffffff"
     bordercolor="#000000"
     borderopacity="0.25"
     inkscape:showpageshadow="2"
     inkscape:pageopacity="0.0"
     inkscape:pagecheckerboard="0"
     inkscape:deskcolor="#d1d1d1"
     inkscape:document-units="mm"
     inkscape:zoom="1.0333895"
     inkscape:cx="114.18734"
     inkscape:cy="461.58781"
     inkscape:window-width="2560"
     inkscape:window-height="1369"
     inkscape:window-x="0"
     inkscape:window-y="0"
     inkscape:window-maximized="1"
     inkscape:current-layer="layer1" /><defs
     id="defs1" /><g
     inkscape:label="Layer 1"
     inkscape:groupmode="layer"
     id="layer1"><path
       style="fill:#501e1e;fill-opacity:1;stroke-width:0.602266"
       d="m 41.884051,20.421538 c 0,0 3.788246,5.536671 15.15299,7.576501 11.364745,2.039824 35.842661,5.245266 43.710559,2.622632 7.8679,-2.622632 18.94126,-8.159302 18.94126,-8.159302 0,0 -29.723197,-3.496848 -77.804809,-2.039831 z"
       id="path11" /><path
       style="fill:#594242;fill-opacity:1;stroke-width:0.602266"
       d="M 141.83553,87.735802 C 147.08079,60.343851 150.86906,34.408919 135.71606,18.381715 120.56307,2.3545083 37.804395,-0.85093593 22.068596,17.507504 6.3327893,35.86594 14.200691,96.769318 14.200691,96.769318 c 0,0 11.947559,-1.457017 10.490535,-2.622634 -1.457015,-1.165615 -3.205439,-62.360403 4.662463,-67.897071 7.867897,-5.536672 20.157255,-4.911439 54.201092,-4.371055 36.716879,0.582811 53.326889,2.33123 51.578469,17.484228 -1.74843,15.152989 -1.16562,43.419149 -1.16562,43.419149 z"
       id="path9"
       sodipodi:nodetypes="csscsssscc" /><path
       style="fill:#c19d7d;fill-opacity:1;stroke-width:0.614322"
       d="m 35.034138,129.63311 c 0,0 -17.272285,-10.60276 -19.239221,-28.0762 C 13.827986,84.083473 13.338697,39.6705 30.63195,31.953595 47.925211,24.236693 64.241611,44.135031 93.784093,36.714899 123.32658,29.294772 129.8425,16.210194 129.8425,16.210194 l -0.24565,12.370972 2.47347,-3.719509 c 0,0 6.92908,13.583421 1.51183,27.444734 -5.41725,13.861306 7.18422,26.630086 -2.35163,32.111476"
       id="path1" /><path
       style="fill:#594242;fill-opacity:1;stroke:none;stroke-width:0.852253;stroke-opacity:1"
       d="m 32.713761,78.636512 c 0,0 -7.816174,0.679642 -12.705281,2.497079 -4.889101,1.817438 -2.969304,-2.37415 -4.889101,1.817438 -1.919784,4.191592 -7.4858255,34.501541 -5.6965464,38.566391 1.7892814,4.06485 15.2445934,11.4445 15.2445934,11.4445 z"
       id="path8-8" /><path
       style="fill:#bb9676;fill-opacity:1;stroke-width:0.614322"
       d="m 35.034138,129.63311 c 0,0 -7.364558,-13.51678 -9.331495,-30.990237 -1.966931,-17.473436 3.061841,-45.451117 21.247915,-40.171537 26.618181,7.727495 32.350293,0.292505 58.489682,-15.345556 27.50266,-16.453641 27.16682,26.485777 25.79028,41.292087"
       id="path7"
       sodipodi:nodetypes="csssc" /><path
       style="fill:#594242;fill-opacity:1;stroke:none;stroke-width:0.852253;stroke-opacity:1"
       d="m 125.42337,74.266043 c 0,0 7.8311,0.477852 12.76544,2.168603 4.93435,1.690754 2.9071,-2.449931 4.93435,1.690754 2.02723,4.14069 8.37306,34.29702 6.68919,38.40667 -1.68385,4.10964 -14.94438,11.83383 -14.94438,11.83383 z"
       id="path8" /><path
       style="fill:#501e1e;fill-opacity:1;stroke:none;stroke-width:0.852253;stroke-opacity:1"
       d="m 32.713761,78.636512 c 0,0 -5.004182,-2.079601 -6.877206,2.788482 -4.374653,11.369941 -5.043672,30.843606 -8.545821,43.006466 -1.228872,4.26783 7.376692,8.53046 7.376692,8.53046 z"
       id="path14"
       sodipodi:nodetypes="csscc" /><path
       style="fill:#501e1e;fill-opacity:1;stroke:none;stroke-width:0.852253;stroke-opacity:1"
       d="m 125.70482,73.907305 c 0,0 5.00419,-2.079601 6.8772,2.788481 4.37466,11.369941 5.04369,30.843604 8.54582,43.006454 1.22887,4.26785 -7.37669,8.53048 -7.37669,8.53048 z"
       id="path14-2"
       sodipodi:nodetypes="csscc" /><path
       style="fill:#e1ba97;fill-opacity:1;stroke-width:0.67291"
       d="M 33.342258,73.195475 21.181462,153.89031 c 0,0 23.332227,45.31786 33.375569,47.01505 10.043337,1.69723 57.778949,7.39974 65.497819,1.02022 7.71888,-6.37952 19.67306,-42.1879 18.16307,-50.71807 -1.50996,-8.53015 -10.56358,-81.579669 -16.96049,-87.389238 -6.39692,-5.809576 -13.47363,-7.596532 -25.593912,-1.369731 -12.120273,6.226796 -19.12177,12.727535 -33.604104,6.733756 -14.48234,-5.993773 -28.717156,4.013178 -28.717156,4.013178 z"
       id="path2"
       sodipodi:nodetypes="ccssssssc" /><path
       style="fill:#d6af8c;fill-opacity:1;stroke-width:0.67291"
       d="m 21.181462,153.89031 c 0,0 23.332227,45.31786 33.375569,47.01505 10.043337,1.69723 57.778949,7.39974 65.497819,1.02022 7.71888,-6.37952 -68.622288,-3.4312 -71.589283,-18.37226 -1.687305,-8.49686 -27.284105,-29.66301 -27.284105,-29.66301 z"
       id="path16"
       sodipodi:nodetypes="csssc" /><path
       id="path302"
       style="fill:#000000;stroke-width:0.0897355"
       d="m 52.42641,88.439634 c -1.156869,0.07919 -2.317918,0.08552 -3.473454,0.191254 -3.418172,0.271368 -6.817985,0.855849 -10.110215,1.820199 -2.620578,0.798187 -5.162647,2.091381 -7.032333,4.134339 -1.899849,2.054824 -3.092567,4.731269 -3.424379,7.504224 -0.07801,0.23499 -0.369215,0.11826 -0.558783,0.15694 -1.314472,0.0447 -2.628954,0.0896 -3.943429,0.1343 0.04211,1.23629 0.0842,2.47259 0.126334,3.70889 1.382497,-0.0471 2.76499,-0.0941 4.147494,-0.14127 -0.05448,2.42035 0.10821,4.84952 0.524226,7.2352 0.577079,3.20306 1.794553,6.36054 3.932929,8.85216 0.90419,1.04898 1.922425,1.99908 3.005509,2.86063 1.782768,1.36893 3.874922,2.30001 6.035788,2.88976 1.76291,0.45799 3.602396,0.73386 5.423422,0.5235 2.585707,-0.27235 5.04549,-1.25191 7.318001,-2.47846 3.685698,-2.02892 6.8591,-4.88134 9.598137,-8.05302 2.364053,-2.74217 4.308095,-5.82114 6.003438,-9.01282 0.98933,-1.92989 1.947343,-3.89877 2.520372,-5.99846 0.265174,-0.99797 0.4197,-2.02394 0.488325,-3.053677 0.07309,-0.344454 0.111606,-0.740837 0.510112,-0.862308 1.208661,-0.800315 2.484576,-1.557505 3.900814,-1.91801 1.12497,-0.235202 2.227093,0.22146 3.246536,0.646331 0.827188,0.362366 1.616914,0.803932 2.389121,1.27064 0.18768,1.777464 0.643587,3.529174 1.409375,5.147124 0.905463,1.95687 2.017216,3.8115 3.178382,5.62558 2.679157,4.13621 6.018775,7.85208 9.902861,10.88987 3.428547,2.68538 7.431537,4.75576 11.756557,5.47534 2.76187,0.45894 5.60032,-0.12155 8.16262,-1.17272 1.53644,-0.66126 2.99508,-1.51778 4.30261,-2.56187 1.36347,-1.14513 2.57217,-2.47835 3.58414,-3.94287 1.91316,-2.86056 2.84608,-6.2887 3.01345,-9.70439 0.10279,-1.85668 0.0882,-3.72028 -0.0229,-5.57606 -0.0114,-0.24165 -0.14771,-0.5893 0.2117,-0.50071 1.29198,-0.044 2.58398,-0.088 3.87598,-0.13202 -0.0421,-1.2363 -0.0842,-2.472596 -0.12633,-3.708899 -1.48328,0.05051 -2.96655,0.101048 -4.44983,0.151555 -0.36847,-1.727435 -0.99021,-3.409954 -1.94534,-4.901725 -1.32829,-2.12297 -3.28251,-3.845081 -5.56348,-4.881548 -1.75881,-0.806649 -3.66119,-1.233119 -5.55157,-1.602737 -3.79276,-0.689387 -7.66301,-0.868608 -11.51116,-0.746022 -3.511233,0.116408 -7.022031,0.24597 -10.533407,0.358774 -13.440548,0.456802 -26.881011,0.916382 -40.321567,1.37295 z m 12.383731,1.460085 c 8.621728,-0.293636 17.243456,-0.587273 25.865186,-0.880908 -1.389429,0.576353 -2.813457,1.167269 -3.970841,2.150508 -1.23218,1.290799 -2.550637,2.581331 -3.281458,4.239076 -0.268773,0.647161 -0.41989,1.344082 -0.433605,2.045099 -1.394764,-0.781572 -2.871158,-1.50177 -4.468928,-1.732428 -1.27139,-0.129157 -2.499213,0.376909 -3.611306,0.937711 -0.632845,0.329713 -1.238367,0.708571 -1.837502,1.095314 -0.447898,-2.358032 -1.99898,-4.388696 -3.906204,-5.786964 -1.305608,-0.964142 -2.815745,-1.585497 -4.355342,-2.067408 z"
       sodipodi:nodetypes="ccccccccccccccccccccccccccccccccccccccccccccccccccccccc"
       inkscape:export-filename="aviators.png"
       inkscape:export-xdpi="96"
       inkscape:export-ydpi="96" /><path
       style="fill:#ffffff;fill-opacity:1;stroke-width:0.602266"
       d="m 47.712121,163.20938 76.930589,-7.5765 -8.74211,19.23265 -60.611982,-2.91405 z"
       id="path3" /><path
       style="fill:none;fill-opacity:1;stroke:#000000;stroke-width:0.602266;stroke-opacity:1"
       d="m 53.540199,167.28903 66.440061,-3.49686"
       id="path4" /><path
       style="fill:#9e8066;fill-opacity:1;stroke:none;stroke-width:0.602266;stroke-opacity:1"
       d="m 85.647177,146.58933 c 0,0 -12.208618,7.54134 -21.802625,8.25796 -9.594006,0.71667 -13.914664,-4.63407 -14.424996,-9.57018 -0.510325,-4.9361 4.930662,-7.21892 7.854738,-7.05678 2.924075,0.16229 5.737566,4.41291 5.737566,4.41291 0,0 -2.115201,-1.65645 -4.94901,0.21921 -2.833818,1.87564 -2.323491,6.81178 1.978808,5.16275 4.302302,-1.64898 11.587698,-8.38888 17.093157,-9.2161 5.505453,-0.82723 8.403743,-1.2473 8.403743,-1.2473"
       id="path5" /><path
       style="fill:#9e8066;fill-opacity:1;stroke:none;stroke-width:0.602266;stroke-opacity:1"
       d="m 85.247557,146.56963 c 0,0 12.827562,6.43239 22.447353,6.29798 9.61981,-0.1343 13.45047,-5.84619 13.52238,-10.8081 0.072,-4.9619 -5.54961,-6.75472 -8.4479,-6.33468 -2.89828,0.42007 -5.32493,4.90292 -5.32493,4.90292 0,0 1.96046,-1.83696 4.94901,-0.21921 2.98855,1.61776 2.91665,6.57967 -1.5146,5.31749 -4.43125,-1.26215 -12.284018,-7.33152 -17.841055,-7.66876 -5.557031,-0.33723 -8.48111,-0.49939 -8.48111,-0.49939"
       id="path5-9" /><path
       style="fill:#9e8066;fill-opacity:1;stroke:none;stroke-width:0.602266;stroke-opacity:1"
       d="m 65.779158,184.19043 3.49684,19.23264 c 0,0 1.165617,6.70229 8.450711,4.95386 7.285089,-1.74842 6.993687,-2.33123 15.152993,-1.45701 8.159308,0.87422 6.993685,2.33122 11.947558,0.29139 4.95386,-2.03982 6.99369,-23.89509 6.99369,-23.89509 z"
       id="path6" /><path
       style="fill:#594242;fill-opacity:1;stroke-width:0.602266"
       d="M 21.194386,87.444397 C 24.108418,69.085961 25.856842,32.07769 25.856842,32.07769 l -9.033513,11.65615 -3.205446,39.922309 z"
       id="path10" /><path
       style="fill:none;fill-opacity:1;stroke:#cca27c;stroke-width:2.65187;stroke-dasharray:none;stroke-opacity:1"
       d="m 78.018109,97.060723 c -0.874206,9.907717 -0.874206,11.073327 -5.245263,14.278767 -4.371055,3.20546 -1.165615,7.86791 -1.165615,7.86791 h 9.324919"
       id="path12" /><path
       style="fill:#501e1e;fill-opacity:1;stroke:none;stroke-width:2.65187;stroke-dasharray:none;stroke-opacity:1"
       d="m 144.53747,82.182564 c 0,0 -6.61916,7.99127 -4.4916,15.916664 2.12754,7.925412 9.835,14.245752 9.87258,12.789222 0.0378,-1.45654 0.077,-14.281554 -5.38098,-28.705886 z"
       id="path13" /><path
       style="fill:#501e1e;fill-opacity:1;stroke:none;stroke-width:2.65187;stroke-dasharray:none;stroke-opacity:1"
       d="m 14.328155,85.667356 c 0,0 6.619161,7.99127 4.491606,15.916664 -2.127553,7.92541 -9.8350133,14.24576 -9.872595,12.78922 -0.037791,-1.45654 -0.076937,-14.28155 5.380989,-28.705884 z"
       id="path13-6" /><path
       style="fill:#947254;fill-opacity:1;stroke:none;stroke-width:2.65187;stroke-dasharray:none;stroke-opacity:1"
       d="m 72.869034,184.2232 20.605352,-0.41212 3.708967,-1.64842 2.472644,1.64842 3.708963,-3.70895 0.82421,4.53317 c 0,0 0.41211,10.3027 -3.29685,11.95111 -3.708967,1.64842 -20.60536,3.70896 -23.902217,0.4121 -3.29686,-3.29683 -4.121069,-12.77531 -4.121069,-12.77531 z"
       id="path15" /><path
       style="fill:#f5b150;fill-opacity:1;stroke:none;stroke-width:1.165;stroke-dasharray:none;stroke-opacity:1"
       d="m 111.37501,156.94913 0.7681,5.8888 c 0,0 5.88879,0.7681 6.14483,-0.51207 0.25603,-1.28017 1.79224,-5.88879 0.7681,-6.14483 -1.02414,-0.25603 -7.68103,0.7681 -7.68103,0.7681 z"
       id="path17" /><path
       style="fill:none;stroke-width:1.165;stroke:#ffffff;stroke-opacity:1"
       d="M 44.549996,94.988786 34.820688,111.37499"
       id="path18" /><path
       style="fill:none;stroke:#ffffff;stroke-width:1.165;stroke-opacity:1"
       d="M 52.23103,93.708616 39.173274,118.54396"
       id="path19" /><path
       style="fill:none;stroke:#ffffff;stroke-width:1.165;stroke-opacity:1"
       d="m 51.206894,111.63103 -4.352586,7.425"
       id="path20" /><path
       style="fill:none;stroke:#ffffff;stroke-width:1.165;stroke-opacity:1"
       d="M 98.061202,93.196546 89.868099,105.23017"
       id="path21" /><path
       style="fill:none;stroke:#ffffff;stroke-width:1.165;stroke-opacity:1"
       d="M 102.66982,98.573269 94.988786,111.37499"
       id="path22" /><path
       style="fill:none;stroke:#ffffff;stroke-width:1.165;stroke-opacity:1"
       d="M 111.63103,92.428442 104.7181,106.2543"
       id="path23" /></g></svg>
